PathFileType	4	(X/Y/Z)	C:/Users/opensim2020/Desktop/walking_exp_matlab/subject01_walking13_straight_02.trc																																																																																																																												
DataRate	CameraRate	NumFrames	NumMarkers	Units	OrigDataRate	OrigDataStartFrame	OrigNumFrames																																																																																																																								
100	100	8	42	mm	100	1218	172																																																																																																																								
Frame#	Time	LFHD			RFHD			LBHD			RBHD			C7			T10			CLAV			STRN			RBAK			LSHO			LUPA			LELB			LFRM			LWRA			LWRB			LFIN			RSHO			RUPA			RELB			RFRM			RWRA			RWRB			RFIN			LASI			RASI			LPSI			RPSI			LTHI			LKNE			LTIB			LANK			LHEE			LTOE			RTHI			RKNE			RTIB			RANK			RHEE			RTOE			*39			*40			*41		
		X1	Y1	Z1	X2	Y2	Z2	X3	Y3	Z3	X4	Y4	Z4	X5	Y5	Z5	X6	Y6	Z6	X7	Y7	Z7	X8	Y8	Z8	X9	Y9	Z9	X10	Y10	Z10	X11	Y11	Z11	X12	Y12	Z12	X13	Y13	Z13	X14	Y14	Z14	X15	Y15	Z15	X16	Y16	Z16	X17	Y17	Z17	X18	Y18	Z18	X19	Y19	Z19	X20	Y20	Z20	X21	Y21	Z21	X22	Y22	Z22	X23	Y23	Z23	X24	Y24	Z24	X25	Y25	Z25	X26	Y26	Z26	X27	Y27	Z27	X28	Y28	Z28	X29	Y29	Z29	X30	Y30	Z30	X31	Y31	Z31	X32	Y32	Z32	X33	Y33	Z33	X34	Y34	Z34	X35	Y35	Z35	X36	Y36	Z36	X37	Y37	Z37	X38	Y38	Z38	X39	Y39	Z39	X40	Y40	Z40	X41	Y41	Z41	X42	Y42	Z42
																																																																																																																															
130	1.29	411.93231	1653.0708	-1554.15344	409.16574	1654.97815	-1439.81787	291.4801	1624.48889	-1565.14343	285.02228	1625.78101	-1444.23523	223.80379	1425.75635	-1519.47192	184.55948	1130.97314	-1498.06995	366.03271	1354.11096	-1510.22949	408.8757	1201.12012	-1513.67017	165.85373	1230.15894	-1438.93115	309.41467	1385.60303	-1673.34705	292.10843	1210.0144	-1768.61438	306.10214	1057.82617	-1791.33569	408.64941	997.30505	-1809.04236	541.96051	967.96271	-1782.32654	507.08383	926.9444	-1807.65027	586.57092	913.87469	-1822.84009	297.24106	1386.39563	-1361.09045	206.71347	1199.57837	-1262.31372	187.87918	1077.96887	-1252.65747	196.38255	958.53821	-1217.99792	260.95642	833.02356	-1230.37244	215.57869	839.13818	-1194.49841	249.90703	764.07086	-1183.98914	353.94223	927.39966	-1613.81946	373.83377	930.13599	-1396.6604	173.66005	937.58008	-1539.82312	190.83144	932.0127	-1396.34705	266.29037	598.59833	-1653.68176	229.53152	466.37811	-1634.11731	136.02348	299.03973	-1630.66565	66.23203	92.40092	-1569.57898	21.24596	74.28457	-1512.62366	203.07655	31.7823	-1584.71716	430.3327	609.43439	-1341.30383	488.44296	465.46744	-1373.39966	469.1575	290.75723	-1368.60645	492.21869	83.64307	-1419.9552	455.75848	37.84314	-1475.17371	634.06348	70.31989	-1415.57715	404.81784	1689.60742	-1463.36011	-1973.11707	1023.93347	3101.90894	-2012.55872	1022.1485	3140.80957
131	1.3	424.56308	1652.0166	-1552.09668	421.24231	1653.66309	-1437.77405	304.15366	1623.50989	-1563.75977	297.17413	1624.47424	-1442.78845	236.19641	1424.53687	-1518.52039	197.19522	1129.72656	-1497.2179	378.68536	1353.12219	-1509.25342	421.40063	1199.96729	-1513.12793	178.44995	1228.52454	-1438.49597	322.18887	1385.01514	-1672.32837	305.94409	1210.02905	-1768.6626	320.94833	1058.24072	-1792.53564	425.10275	1000.45355	-1809.88477	558.90533	974.50824	-1782.5188	525.38647	932.73071	-1808.30505	605.25464	922.29211	-1823.34473	309.37665	1384.8833	-1360.10413	217.48312	1198.20715	-1262.32043	198.21127	1076.91333	-1252.67371	204.87601	957.61719	-1217.60596	267.15634	830.89478	-1229.10486	222.0099	837.91718	-1193.59631	255.48775	762.62219	-1182.20532	366.07538	926.44434	-1614.28662	387.74811	928.72333	-1397.24585	186.41161	936.87628	-1538.61536	204.72171	931.02673	-1395.31909	274.5239	598.49695	-1654.50952	236.02797	466.68198	-1634.6792	140.57942	300.49841	-1631.39868	67.44717	94.83332	-1570.40442	22.08105	77.72147	-1513.63013	203.22037	31.47187	-1584.69836	438.67868	605.86066	-1340.79382	500.75986	464.23984	-1374.78174	489.81732	289.39578	-1369.54517	524.4212	83.57999	-1420.65613	490.36914	35.62239	-1475.47278	666.98181	77.8582	-1416.67163	417.10144	1688.34924	-1461.26184	-1972.95728	1023.92603	3101.96558	-2012.51929	1022.13226	3140.74902
132	1.31	437.15125	1650.95251	-1549.98914	433.30771	1652.37158	-1435.70093	316.82947	1622.47205	-1562.20691	309.38388	1623.08484	-1441.28601	248.70627	1423.27637	-1517.44019	209.9108	1128.4021	-1496.33667	391.17719	1351.95386	-1508.07764	434.08755	1198.92432	-1512.53003	191.05353	1226.84766	-1437.88123	334.92477	1384.39465	-1671.17053	319.64539	1210.01196	-1768.4978	335.6293	1058.63306	-1793.60962	441.21613	1003.33112	-1810.55981	575.31158	980.59967	-1782.61475	543.14215	938.17346	-1808.85852	623.35815	929.97015	-1823.5	321.67075	1383.25427	-1359.00159	228.37178	1196.78149	-1262.23145	208.64888	1075.77405	-1252.65894	213.63347	956.54291	-1217.20667	274.25803	828.93512	-1227.63086	228.57541	836.90594	-1192.68677	260.29013	760.77942	-1181.2876	378.40741	925.49109	-1614.63953	401.77155	927.27612	-1397.85974	199.39235	936.00604	-1537.3584	218.81439	930.03979	-1394.32886	283.32401	598.33325	-1655.23938	243.63263	466.76215	-1635.40417	145.64616	301.991	-1632.18445	68.9947	97.37635	-1571.30896	23.2492	81.44679	-1514.70544	203.32512	31.54538	-1584.90723	446.78589	602.21344	-1339.52795	513.81299	463.23465	-1375.98389	509.67636	288.31195	-1370.52625	553.49219	84.12547	-1421.4873	521.60846	34.09122	-1476.51538	696.09473	84.73219	-1417.0498	429.26044	1687.07495	-1459.07397	-1973.00098	1023.91254	3102.03149	-2012.47205	1022.03162	3140.67773
133	1.32	449.68362	1649.83704	-1547.78186	445.4292	1651.01904	-1433.48694	329.46741	1621.34119	-1560.55237	321.47021	1621.72437	-1439.6687	261.21652	1422.07251	-1516.26563	222.89357	1126.92236	-1495.32483	403.63513	1350.66785	-1506.771	446.74106	1197.80151	-1511.8064	203.73386	1225.17493	-1437.00818	347.69791	1383.72522	-1669.85107	333.23898	1209.9325	-1768.19885	350.18796	1058.99512	-1794.5188	456.95987	1005.96899	-1811.11206	591.24902	986.13531	-1782.49512	560.33368	943.06213	-1809.19983	640.78174	937.23523	-1823.52515	333.95135	1381.55029	-1357.72839	239.4212	1195.30164	-1262.01038	219.28741	1074.46521	-1252.65674	222.60674	955.49469	-1216.75684	281.89023	827.13422	-1226.21924	235.78818	835.51648	-1192.01416	266.38806	759.05017	-1180.1239	390.96133	924.61322	-1615.0022	415.91022	925.66943	-1398.49829	212.49042	935.02228	-1536.18079	233.03848	928.90881	-1393.10486	292.60294	598.2829	-1655.91443	251.90582	466.72647	-1636.22437	151.12871	303.53082	-1633.08081	70.71535	100.22567	-1572.32361	24.55054	85.4279	-1515.86792	203.58543	31.43736	-1585.00635	455.22623	598.92786	-1338.25024	526.4046	462.07983	-1376.89441	528.4931	287.56982	-1371.36499	579.6521	85.11694	-1422.901	549.78247	33.81413	-1478.12463	721.98181	90.40585	-1417.53577	441.37933	1685.70068	-1456.71228	-1973.04395	1023.44696	3102.00171	-2012.58655	1022	3140.64233
134	1.33	462.19745	1648.70276	-1545.54395	457.58023	1649.68323	-1431.22351	342.04166	1620.14453	-1558.74182	333.61087	1620.3324	-1437.91602	273.75162	1420.62354	-1514.75928	235.95613	1125.38318	-1494.34668	416.32553	1349.51318	-1505.38818	459.54962	1196.62317	-1510.96448	216.51718	1223.48352	-1435.93372	360.41687	1383.02966	-1668.39075	346.68488	1209.89795	-1767.71777	364.54248	1059.33667	-1795.27563	472.31821	1008.31714	-1811.46753	606.76617	991.25214	-1782.35242	576.95093	947.60663	-1809.53699	657.5755	943.80206	-1823.40735	346.37885	1379.81824	-1356.20923	250.63933	1193.8479	-1261.49402	230.14453	1073.16235	-1252.31897	231.99078	954.28699	-1216.17908	291.1478	825.77368	-1224.74658	243.59668	834.11102	-1191.45972	273.0408	757.32526	-1179.18542	403.69852	923.66272	-1615.35205	430.43307	924.19019	-1399.10168	225.9054	933.91211	-1534.99036	247.25154	927.82227	-1392.06494	302.80853	597.87018	-1656.55029	260.87454	466.54691	-1636.99438	157.14868	305.1355	-1633.99622	72.51088	103.53987	-1573.62219	26.06803	89.91512	-1517.18103	203.70047	31.4816	-1585.28003	465.07361	596.23798	-1337.20837	538.52698	460.93195	-1377.48572	545.33197	286.54489	-1372.44434	602.08771	85.25901	-1424.57214	574.11688	33.57744	-1480.31885	744.54651	94.52814	-1418.37671	453.6167	1684.37048	-1454.43372	-1973.22351	1023.55627	3101.97729	-2012.50208	1022.00232	3140.80933
135	1.34	474.76917	1647.54871	-1543.16199	469.677	1648.30627	-1428.90466	354.61005	1618.96667	-1556.84668	345.8273	1618.88892	-1436.03406	286.27206	1419.21875	-1513.26794	249.18468	1123.79089	-1493.36743	429.00223	1348.32397	-1503.86108	472.44394	1195.54358	-1509.99976	229.39238	1221.73743	-1434.7793	373.19724	1382.3645	-1666.82043	360.10672	1209.81189	-1767.05835	378.69608	1059.68115	-1795.83167	487.25223	1010.37823	-1811.66833	621.74408	995.65149	-1781.99219	592.93665	951.63214	-1809.6438	673.70654	949.71375	-1823.14587	358.8822	1378.14587	-1354.80371	262.06503	1192.26001	-1260.85669	241.23799	1071.69019	-1251.84497	241.79384	952.72565	-1215.66113	298.95786	823.77484	-1223.51147	251.55014	832.73334	-1190.78979	280.17038	755.39783	-1178.25476	416.65347	922.75043	-1615.66394	444.85437	922.62018	-1399.65356	239.50639	932.65735	-1533.77637	261.54861	926.59064	-1390.98132	313.7085	597.38379	-1657.21216	270.73291	466.31699	-1637.78247	163.78615	306.91174	-1634.974	74.84892	106.76988	-1574.7467	27.86881	94.80415	-1518.69629	203.87714	31.28282	-1585.38049	476.74152	594.37988	-1336.71289	550.62268	459.51135	-1377.75391	560.55896	285.14813	-1373.80994	621.19586	84.60182	-1426.48633	594.64764	33.11243	-1482.61609	763.89355	96.42706	-1419.55139	465.85855	1683.01208	-1451.98328	-1973.03357	1023.49976	3102.01001	-2012.56982	1022.1651	3140.79321
136	1.35	487.23752	1646.3916	-1540.7583	481.82095	1646.92444	-1426.46484	367.21161	1617.83044	-1554.83777	358.09586	1617.51343	-1434.04749	298.7337	1417.79736	-1511.62854	262.54587	1122.17139	-1492.40637	441.73376	1347.0885	-1502.18933	485.51547	1194.47986	-1508.94482	242.32439	1219.96863	-1433.63965	385.95911	1381.70532	-1665.10938	373.39859	1209.70874	-1766.21033	392.55222	1059.98633	-1796.10327	501.78784	1012.23627	-1811.76172	636.30157	999.65839	-1781.62012	608.39386	955.1969	-1809.65002	689.27759	954.83722	-1822.71582	371.42371	1376.27612	-1353.09424	273.53281	1190.75647	-1260.02893	252.64751	1070.19226	-1251.05615	251.83899	951.23016	-1215.0177	306.60742	820.99811	-1223.18152	259.92444	831.1438	-1190.2511	288.04697	753.47137	-1177.50793	429.95981	921.888	-1615.88782	459.34195	921.10101	-1400.09229	253.26079	931.36554	-1532.72107	275.95343	925.30933	-1389.95801	325.38675	596.79517	-1657.86853	281.38855	465.99557	-1638.63806	170.99806	308.77005	-1636.05591	77.33457	110.59573	-1576.19287	29.92489	100.15852	-1520.57556	204.05997	31.28408	-1585.63892	490.22745	593.22198	-1337.32043	562.80029	457.95529	-1378.11877	574.31445	283.42035	-1375.34692	636.65631	83.2782	-1428.41309	611.24347	32.18244	-1485.0271	780.13184	96.20983	-1421.25391	478.08023	1681.69373	-1449.56812	-1973.12268	1023.57336	3102.06396	-2012.56262	1022.08734	3140.73193
137	1.36	499.76407	1645.22888	-1538.25	494.01758	1645.57349	-1424.04614	379.7319	1616.68127	-1552.69275	370.31522	1616.18201	-1431.90027	311.26184	1416.40295	-1509.87158	276.05417	1120.46509	-1491.47559	454.46994	1345.92566	-1500.46265	498.67609	1193.50549	-1507.84778	255.42325	1218.12524	-1432.45105	398.71475	1381.04419	-1663.3175	386.64166	1209.53333	-1765.17151	406.12579	1060.23022	-1796.25	515.89197	1013.79974	-1811.63513	650.34308	1002.82422	-1781.08984	623.21173	958.24579	-1809.47156	704.18903	959.21692	-1822.24243	383.84265	1374.55664	-1351.49463	285.61325	1188.82227	-1259.13171	264.28186	1068.50562	-1250.44556	262.32339	949.7149	-1214.34802	315.88708	818.93353	-1222.23657	269.69269	829.2619	-1189.66479	296.49716	751.43164	-1176.79749	443.53156	920.81012	-1615.96924	473.80234	919.74878	-1400.36682	267.21317	929.99866	-1531.75537	290.19894	923.98761	-1389.15674	337.81079	595.98041	-1658.46716	292.90778	465.36713	-1639.51367	178.93973	310.60046	-1637.30737	80.35985	114.64021	-1577.8457	32.67482	105.61565	-1522.21484	204.36691	31.25137	-1585.85522	505.44046	592.65546	-1338.59766	574.84326	456.03479	-1378.55945	586.48053	281.31284	-1376.87598	649.68304	81.55318	-1430.42322	624.01569	30.89764	-1487.47046	793.24402	93.48963	-1423.34387	490.31793	1680.35742	-1447.01611	-1973.14441	1023.83276	3102.0271	-2012.67798	1022.18475	3140.59497
